<?xml version="1.0" encoding="utf-8"?>
<!-- Generator: Adobe Illustrator 25.2.3, SVG Export Plug-In . SVG Version: 6.00 Build 0)  -->
<svg version="1.1" id="레이어_1" xmlns="http://www.w3.org/2000/svg" xmlns:xlink="http://www.w3.org/1999/xlink" x="0px"
	 y="0px" viewBox="0 0 40 40" style="enable-background:new 0 0 40 40;" xml:space="preserve">
<style type="text/css">
	.st0{fill:#040000;}
</style>
<g>
	<path class="st0" d="M12.98,38.5c-0.35,0-0.68-0.14-0.91-0.39c-0.28-0.29-0.42-0.7-0.37-1.1c0.08-0.58,0.22-1.15,0.41-1.7
		c0.49-1.37,0.76-2.8,0.81-4.25c0.01-0.64-0.02-1.27-0.08-1.91c-0.09-0.9-0.12-1.8-0.09-2.7c-0.03-0.89,0-1.79,0.09-2.67
		c0.06-0.63,0.09-1.27,0.08-1.9c-0.05-1.45-0.32-2.88-0.81-4.24c-0.19-0.56-0.33-1.15-0.41-1.74c-0.05-0.4,0.08-0.81,0.37-1.1
		c0.27-0.29,0.66-0.44,1.06-0.4c0.48,0.06,0.95,0.2,1.38,0.41l0.05,0.03c0.62,0.34,1.3,0.57,2,0.68c1.44,0.25,2.92,0.25,4.36,0
		c1.62-0.28,3.26-0.39,4.9-0.32c1.64-0.07,3.28,0.04,4.9,0.32c1.44,0.25,2.92,0.25,4.37,0c0.72-0.1,1.42-0.33,2.05-0.68l0.05-0.03
		c0.43-0.21,0.9-0.35,1.38-0.41c0.39-0.04,0.77,0.1,1.03,0.38c0.29,0.29,0.43,0.7,0.39,1.1c-0.1,0.73-0.29,1.45-0.57,2.14
		c-0.39,1.02-0.61,2.09-0.64,3.17c-0.04,0.86-0.01,1.72,0.07,2.58c0.09,0.9,0.12,1.8,0.1,2.7c0.02,0.9-0.01,1.79-0.1,2.69
		c-0.08,0.85-0.1,1.71-0.06,2.57c0.03,1.09,0.24,2.17,0.63,3.19l0,0c0.27,0.68,0.47,1.39,0.57,2.12c0.05,0.4-0.08,0.81-0.37,1.1
		c-0.27,0.28-0.65,0.42-1.03,0.38c-0.48-0.06-0.95-0.2-1.38-0.41h-0.05c-0.64-0.35-1.34-0.58-2.06-0.67c-1.43-0.24-2.89-0.24-4.32,0
		c-1.62,0.29-3.27,0.4-4.92,0.32c-1.65,0.07-3.3-0.04-4.92-0.32c-1.43-0.24-2.89-0.24-4.32,0c-0.72,0.09-1.42,0.32-2.06,0.67h-0.05
		c-0.43,0.21-0.9,0.35-1.38,0.41L12.98,38.5z M37.73,37.08c0.3,0.14,0.62,0.24,0.95,0.28c0.04,0.01,0.08-0.01,0.1-0.04
		c0.04-0.04,0.06-0.1,0.06-0.16c-0.08-0.63-0.25-1.26-0.48-1.85c-0.43-1.14-0.68-2.34-0.72-3.55c-0.04-0.91-0.02-1.83,0.06-2.74
		c0.09-0.85,0.12-1.71,0.09-2.56c0.03-0.86,0-1.72-0.09-2.57c-0.08-0.91-0.1-1.82-0.06-2.74c0.04-1.21,0.28-2.41,0.72-3.54
		c0.24-0.61,0.4-1.24,0.48-1.88c0-0.06-0.02-0.12-0.06-0.16c-0.02-0.03-0.06-0.05-0.1-0.04c-0.33,0.04-0.65,0.14-0.95,0.28
		c-0.75,0.42-1.58,0.69-2.43,0.81c-1.57,0.27-3.18,0.27-4.75,0c-1.54-0.27-3.1-0.38-4.66-0.31h-0.1c-1.56-0.07-3.12,0.04-4.66,0.31
		c-1.57,0.27-3.18,0.27-4.75,0c-0.86-0.12-1.68-0.4-2.43-0.82c-0.3-0.14-0.62-0.23-0.95-0.28c-0.04-0.01-0.08,0.01-0.1,0.04
		c-0.04,0.04-0.06,0.1-0.05,0.16c0.07,0.52,0.19,1.03,0.35,1.52c0.53,1.48,0.82,3.03,0.86,4.59c0.01,0.68-0.02,1.36-0.09,2.03
		c-0.08,0.85-0.11,1.7-0.09,2.56c-0.03,0.86,0,1.73,0.09,2.58c0.06,0.68,0.09,1.36,0.09,2.04c-0.05,1.57-0.34,3.12-0.87,4.59
		c-0.16,0.49-0.28,1-0.35,1.51c-0.01,0.06,0.01,0.12,0.05,0.16c0.02,0.03,0.06,0.05,0.1,0.04c0.33-0.04,0.65-0.14,0.95-0.28
		c0.76-0.42,1.59-0.7,2.45-0.82c1.56-0.26,3.15-0.26,4.7,0c1.55,0.27,3.12,0.37,4.69,0.31h0.1c1.57,0.07,3.14-0.04,4.69-0.31
		c1.56-0.26,3.15-0.26,4.7,0C36.15,36.37,36.98,36.65,37.73,37.08z"/>
	<path class="st0" d="M13.12,28.03h-0.03c-1.58-0.53-3.09-1.23-4.5-2.1c-1.24-0.74-2.59-1.28-4-1.58c-0.71-0.17-1.45-0.22-2.17-0.12
		c-0.5,0.06-1.01,0.02-1.49-0.11c-0.37-0.11-0.68-0.38-0.82-0.73c-0.15-0.37-0.13-0.79,0.07-1.14c0.29-0.52,0.62-1.01,1.01-1.46
		c0.95-1.09,1.72-2.33,2.29-3.66c0.25-0.59,0.46-1.19,0.63-1.8c0.25-0.87,0.55-1.73,0.9-2.56c0.31-0.84,0.67-1.66,1.07-2.46
		c0.29-0.58,0.55-1.17,0.77-1.78c0.5-1.36,0.77-2.79,0.81-4.24c0.03-0.6,0.12-1.19,0.26-1.77c0.1-0.39,0.37-0.72,0.74-0.88
		c0.35-0.17,0.76-0.17,1.11,0c0.43,0.23,0.81,0.53,1.14,0.88l0.04,0.05c0.45,0.55,0.99,1.02,1.61,1.37
		c1.26,0.75,2.63,1.27,4.07,1.56c1.62,0.31,3.19,0.8,4.7,1.45c1.55,0.53,3.04,1.23,4.44,2.08c1.25,0.76,2.62,1.3,4.06,1.6
		c0.71,0.17,1.44,0.21,2.15,0.11c0.5-0.06,1.01-0.02,1.49,0.11c0.37,0.12,0.66,0.39,0.8,0.76c0.15,0.37,0.12,0.79-0.07,1.14
		c-0.36,0.65-0.79,1.24-1.29,1.78c-0.51,0.56-0.95,1.17-1.3,1.83l-1.01-0.57c0.41-0.73,0.91-1.41,1.49-2.03
		c0.44-0.47,0.83-1,1.14-1.57c0.03-0.06,0.03-0.12,0-0.18c-0.01-0.04-0.04-0.06-0.08-0.07c-0.33-0.09-0.67-0.11-1.01-0.08
		c-0.85,0.12-1.72,0.08-2.55-0.12c-1.56-0.33-3.05-0.91-4.41-1.74c-1.33-0.81-2.75-1.47-4.24-1.98l-0.09-0.04
		c-1.43-0.63-2.93-1.09-4.47-1.39c-1.56-0.32-3.06-0.89-4.43-1.7c-0.75-0.42-1.42-0.98-1.96-1.65C9.78,3,9.52,2.8,9.23,2.64
		c-0.04-0.02-0.08-0.02-0.11,0c-0.05,0.02-0.09,0.07-0.1,0.12C8.88,3.27,8.8,3.79,8.77,4.32C8.73,5.88,8.43,7.43,7.89,8.91
		c-0.24,0.64-0.51,1.26-0.82,1.86c-0.38,0.76-0.73,1.55-1.02,2.35c-0.33,0.8-0.62,1.61-0.86,2.44c-0.18,0.66-0.41,1.3-0.67,1.93
		c-0.61,1.45-1.45,2.79-2.48,3.98c-0.34,0.4-0.65,0.83-0.91,1.29c-0.03,0.05-0.03,0.11,0,0.16c0.01,0.04,0.04,0.07,0.08,0.08
		c0.33,0.08,0.67,0.11,1.01,0.08c0.86-0.12,1.73-0.07,2.57,0.13c1.54,0.32,3.02,0.9,4.37,1.7c1.34,0.82,2.77,1.48,4.26,1.99
		l0.1,0.04L13.12,28.03z"/>
</g>
</svg>
