<?xml version="1.0" encoding="utf-8"?>
<!-- Generator: Adobe Illustrator 23.0.3, SVG Export Plug-In . SVG Version: 6.00 Build 0)  -->
<svg version="1.1" id="Layer_1" xmlns="http://www.w3.org/2000/svg" xmlns:xlink="http://www.w3.org/1999/xlink" x="0px" y="0px"
	 viewBox="0 0 136 40" style="enable-background:new 0 0 136 40;" xml:space="preserve">
<style type="text/css">
	.st0{fill:#ffffff;}
</style>
<path class="st0" d="M0.79,0.21h18l0.55,7.33h-0.8c-0.49-2.45-1.15-4.15-1.96-5.09c-0.81-0.94-1.88-1.41-3.2-1.41h-1.72v19.91h3.78
	v0.82H4.15v-0.82h3.78V1.03H6.21c-1.32,0-2.39,0.47-3.2,1.41C2.19,3.38,1.54,5.08,1.05,7.53h-0.8L0.79,0.21z"/>
<path class="st0" d="M38.11,7.44l3.83,9.48l5.78-15.89h-3.07V0.21h6.14v0.82h-2.17l-7.79,21.22h-0.55l-4.03-9.98l-3.94,9.98h-0.58
	L23.25,1.03h-2.36V0.21h22.03v0.82h-2.27L38.11,7.44z M33.47,17.11l2.31-5.94L31.72,1.03h-4.68L33.47,17.11z M35.56,1.03l2.13,5.29
	l2.09-5.29H35.56z"/>
<path class="st0" d="M60.3,1.03v9.24h1.91c0.67,0,1.24-0.07,1.71-0.2c0.47-0.13,0.89-0.5,1.26-1.08c0.37-0.59,0.58-1.51,0.64-2.76
	h0.82v9.13h-0.82c-0.08-1.74-0.41-2.88-0.98-3.43c-0.57-0.55-1.45-0.83-2.62-0.83H60.3v9.85h4.3c2.44,0,4.12-0.52,5.06-1.57
	c0.94-1.04,1.5-2.65,1.68-4.83h0.8l-0.21,7.21H53.21v-0.82h3.35V1.03h-3.35V0.21h17.95l0.36,5.75h-0.8c-0.27-1.75-0.83-3-1.68-3.78
	c-0.85-0.77-2.27-1.16-4.25-1.16H60.3z"/>
<path class="st0" d="M82.63,1.03v19.91h4.74c0.91,0,1.63-0.07,2.16-0.21c0.52-0.14,1.04-0.48,1.55-1.01
	c0.51-0.54,0.9-1.17,1.18-1.91c0.28-0.74,0.57-1.77,0.89-3.09h0.74l-0.58,7.04H75.56v-0.82h3.32V1.03h-3.32V0.21h10.58v0.82H82.63z"
	/>
<path class="st0" d="M93.13,0.21h10.09v0.82h-3.35l5.48,15.2h0.06l5.07-15.2h-3.42V0.21h7.48v0.82h-3.23l-7.09,21.22h-0.42
	L95.96,1.03h-2.83V0.21z"/>
<path class="st0" d="M124.08,1.03v9.24h1.91c0.67,0,1.24-0.07,1.71-0.2c0.47-0.13,0.89-0.5,1.26-1.08c0.37-0.59,0.58-1.51,0.64-2.76
	h0.82v9.13h-0.82c-0.08-1.74-0.41-2.88-0.98-3.43c-0.57-0.55-1.45-0.83-2.62-0.83h-1.91v9.85h4.3c2.44,0,4.12-0.52,5.06-1.57
	c0.94-1.04,1.5-2.65,1.68-4.83h0.8l-0.21,7.21H117v-0.82h3.35V1.03H117V0.21h17.95l0.36,5.75h-0.8c-0.27-1.75-0.83-3-1.68-3.78
	c-0.85-0.77-2.27-1.16-4.25-1.16H124.08z"/>
<path class="st0" d="M3.64,39.6v-9.19H2.07v-0.38h4.91v0.38H5.4v4.25H9.7v-4.25H8.15v-0.38h4.88v0.38h-1.56v9.19h1.56v0.38H8.15
	V39.6H9.7v-4.56H5.4v4.56h1.58v0.38H2.07V39.6H3.64z"/>
<path class="st0" d="M19.1,40.21c-1.29,0-2.38-0.54-3.27-1.62c-0.9-1.08-1.35-2.23-1.35-3.46c0-1.47,0.47-2.73,1.41-3.77
	c0.94-1.04,2.04-1.56,3.28-1.56c1.17,0,2.22,0.53,3.15,1.59c0.93,1.06,1.39,2.26,1.39,3.6c0,1.38-0.47,2.6-1.4,3.64
	C21.39,39.68,20.32,40.21,19.1,40.21z M19.13,30.18c-0.54,0-1.03,0.12-1.46,0.37c-0.43,0.25-0.73,0.68-0.88,1.3
	c-0.16,0.62-0.23,1.7-0.23,3.23c0,1.06,0.04,1.91,0.13,2.54c0.09,0.63,0.32,1.16,0.68,1.57c0.36,0.42,0.93,0.62,1.71,0.62
	c0.47,0,0.95-0.13,1.43-0.38c0.48-0.25,0.79-0.75,0.93-1.49c0.15-0.74,0.22-1.88,0.22-3.41c0-1.39-0.09-2.35-0.27-2.88
	c-0.18-0.53-0.47-0.91-0.87-1.15C20.12,30.3,19.65,30.18,19.13,30.18z"/>
<path class="st0" d="M25.42,30.03h8.48l0.26,3.38h-0.38c-0.23-1.13-0.54-1.91-0.92-2.35c-0.38-0.44-0.89-0.65-1.51-0.65h-0.81v9.19
	h1.78v0.38H27V39.6h1.78v-9.19h-0.81c-0.62,0-1.13,0.22-1.51,0.65c-0.38,0.44-0.69,1.22-0.92,2.35h-0.38L25.42,30.03z"/>
<path class="st0" d="M38.72,30.41v4.26h0.9c0.32,0,0.58-0.03,0.8-0.09c0.22-0.06,0.42-0.23,0.59-0.5c0.18-0.27,0.28-0.7,0.3-1.27
	h0.39v4.21h-0.39c-0.04-0.8-0.19-1.33-0.46-1.58c-0.27-0.25-0.68-0.38-1.24-0.38h-0.9v4.55h2.02c1.15,0,1.94-0.24,2.38-0.72
	c0.44-0.48,0.71-1.22,0.79-2.23h0.38l-0.1,3.33h-8.82V39.6h1.58v-9.19h-1.58v-0.38h8.45l0.17,2.66h-0.38
	c-0.13-0.81-0.39-1.39-0.79-1.74c-0.4-0.36-1.07-0.53-2-0.53H38.72z"/>
<path class="st0" d="M49.24,30.41v9.19h2.23c0.43,0,0.77-0.03,1.02-0.1c0.25-0.06,0.49-0.22,0.73-0.47
	c0.24-0.25,0.42-0.54,0.56-0.88c0.13-0.34,0.27-0.82,0.42-1.42h0.35l-0.27,3.25h-8.36V39.6h1.56v-9.19h-1.56v-0.38h4.98v0.38H49.24z
	"/>
<path class="st0" d="M60.75,34.48l1.74,2.76c0.02,0.06,0.1,0.19,0.24,0.39c0.62-0.85,1-2,1.13-3.46H62.4v-0.39h2.94v0.39H64.2
	c-0.1,1.58-0.52,2.84-1.26,3.77l1.2,1.67h1.1v0.38h-2.97c-0.22-0.31-0.42-0.57-0.59-0.79c-0.86,0.68-1.81,1.02-2.85,1.02
	c-1.04,0-1.85-0.27-2.43-0.82c-0.58-0.55-0.86-1.21-0.86-1.98c0-0.73,0.26-1.38,0.77-1.96c0.51-0.58,1.25-1.01,2.2-1.31
	c-0.57-0.97-0.85-1.71-0.85-2.22c0-0.53,0.23-1,0.7-1.41c0.47-0.4,1.05-0.6,1.75-0.6c0.68,0,1.27,0.16,1.76,0.49
	c0.49,0.33,0.74,0.75,0.74,1.28c0,0.43-0.16,0.81-0.49,1.14c-0.33,0.33-0.92,0.64-1.77,0.96L60.75,34.48z M58.69,34.47
	c-1.05,0.4-1.58,0.95-1.58,1.65c0,0.66,0.27,1.41,0.8,2.25c0.53,0.85,1.15,1.27,1.84,1.27c0.54,0,1.12-0.25,1.75-0.76
	C60.39,37.31,59.46,35.83,58.69,34.47z M60.15,33.47c0.48-0.19,0.79-0.42,0.94-0.69c0.15-0.27,0.22-0.63,0.22-1.08
	c0-0.93-0.4-1.4-1.19-1.4c-0.3,0-0.55,0.08-0.75,0.24c-0.2,0.16-0.3,0.36-0.3,0.61C59.08,31.59,59.44,32.37,60.15,33.47z"/>
<path class="st0" d="M68.3,39.6v-9.19h-1.56v-0.38h5.45c0.71,0,1.3,0.06,1.75,0.19c0.46,0.12,0.85,0.38,1.18,0.77
	c0.33,0.39,0.5,0.84,0.5,1.34c0,0.63-0.24,1.14-0.73,1.53c-0.48,0.39-1.31,0.68-2.46,0.88v0.04c0.83,0.16,1.51,0.48,2.04,0.95
	c0.53,0.47,0.8,1.27,0.8,2.39c0,0.64,0.08,1.05,0.23,1.23c0.15,0.18,0.36,0.27,0.63,0.27c0.17,0,0.38-0.03,0.62-0.1v0.36
	c-0.43,0.15-0.85,0.22-1.25,0.22c-0.82,0-1.39-0.23-1.73-0.68c-0.34-0.45-0.5-0.9-0.49-1.34l0.03-1.26c0-0.44-0.14-0.87-0.42-1.3
	c-0.28-0.43-0.91-0.64-1.9-0.64h-0.93v4.72h1.56v0.38h-4.89V39.6H68.3z M70.06,30.41v4.12h1.33c0.57,0,1.01-0.04,1.31-0.12
	c0.3-0.08,0.54-0.28,0.72-0.6c0.18-0.32,0.27-0.84,0.27-1.55c0-0.58-0.09-1-0.27-1.27c-0.18-0.27-0.4-0.43-0.66-0.49
	c-0.26-0.06-0.6-0.09-1.02-0.09H70.06z"/>
<path class="st0" d="M81.43,30.41v4.26h0.9c0.32,0,0.58-0.03,0.81-0.09c0.22-0.06,0.42-0.23,0.59-0.5c0.18-0.27,0.28-0.7,0.3-1.27
	h0.39v4.21h-0.39c-0.04-0.8-0.19-1.33-0.46-1.58c-0.27-0.25-0.68-0.38-1.24-0.38h-0.9v4.55h2.02c1.15,0,1.94-0.24,2.38-0.72
	c0.44-0.48,0.71-1.22,0.79-2.23h0.38l-0.1,3.33h-8.82V39.6h1.58v-9.19h-1.58v-0.38h8.45l0.17,2.66h-0.38
	c-0.13-0.81-0.39-1.39-0.79-1.74c-0.4-0.36-1.07-0.53-2-0.53H81.43z"/>
<path class="st0" d="M94.71,29.92l0.04,2.58h-0.35c-0.49-1.55-1.37-2.32-2.62-2.32c-0.69,0-1.23,0.19-1.61,0.57
	c-0.38,0.38-0.57,0.78-0.57,1.19c0,0.38,0.16,0.7,0.48,0.97c0.32,0.27,0.9,0.47,1.75,0.62c0.85,0.15,1.49,0.32,1.93,0.53
	s0.82,0.56,1.12,1.05c0.3,0.49,0.46,1.05,0.46,1.68c0,0.97-0.32,1.78-0.95,2.43s-1.42,0.97-2.36,0.97c-0.77,0-1.53-0.28-2.29-0.85
	l-0.7,0.62h-0.26V37.2h0.32c0.29,0.88,0.7,1.53,1.22,1.97c0.52,0.44,1.1,0.66,1.72,0.66c0.62,0,1.19-0.2,1.7-0.61
	c0.52-0.41,0.77-0.92,0.77-1.55c0-0.52-0.18-0.97-0.54-1.32c-0.36-0.36-0.94-0.61-1.74-0.74c-0.8-0.14-1.42-0.29-1.85-0.47
	c-0.43-0.18-0.8-0.49-1.11-0.94c-0.31-0.45-0.46-0.94-0.46-1.49c0-0.75,0.27-1.42,0.8-2.01c0.53-0.59,1.26-0.89,2.17-0.89
	c0.77,0,1.48,0.24,2.14,0.73c0.18-0.17,0.34-0.38,0.47-0.61H94.71z"/>
<path class="st0" d="M101.48,40.21c-1.29,0-2.38-0.54-3.27-1.62c-0.9-1.08-1.35-2.23-1.35-3.46c0-1.47,0.47-2.73,1.41-3.77
	c0.94-1.04,2.04-1.56,3.28-1.56c1.17,0,2.22,0.53,3.15,1.59c0.93,1.06,1.39,2.26,1.39,3.6c0,1.38-0.47,2.6-1.4,3.64
	C103.77,39.68,102.7,40.21,101.48,40.21z M101.51,30.18c-0.54,0-1.03,0.12-1.46,0.37c-0.43,0.25-0.73,0.68-0.88,1.3
	c-0.16,0.62-0.23,1.7-0.23,3.23c0,1.06,0.04,1.91,0.13,2.54c0.09,0.63,0.32,1.16,0.68,1.57c0.36,0.42,0.93,0.62,1.71,0.62
	c0.47,0,0.95-0.13,1.43-0.38c0.48-0.25,0.79-0.75,0.93-1.49c0.15-0.74,0.22-1.88,0.22-3.41c0-1.39-0.09-2.35-0.27-2.88
	c-0.18-0.53-0.47-0.91-0.87-1.15C102.5,30.3,102.03,30.18,101.51,30.18z"/>
<path class="st0" d="M109.42,39.6v-9.19h-1.56v-0.38h5.45c0.71,0,1.3,0.06,1.75,0.19c0.46,0.12,0.85,0.38,1.18,0.77
	c0.33,0.39,0.5,0.84,0.5,1.34c0,0.63-0.24,1.14-0.73,1.53c-0.48,0.39-1.31,0.68-2.46,0.88v0.04c0.83,0.16,1.51,0.48,2.04,0.95
	c0.53,0.47,0.8,1.27,0.8,2.39c0,0.64,0.08,1.05,0.23,1.23c0.15,0.18,0.36,0.27,0.63,0.27c0.17,0,0.38-0.03,0.62-0.1v0.36
	c-0.43,0.15-0.85,0.22-1.25,0.22c-0.82,0-1.39-0.23-1.73-0.68c-0.34-0.45-0.5-0.9-0.49-1.34l0.03-1.26c0-0.44-0.14-0.87-0.42-1.3
	c-0.28-0.43-0.91-0.64-1.9-0.64h-0.93v4.72h1.56v0.38h-4.89V39.6H109.42z M111.19,30.41v4.12h1.33c0.57,0,1.01-0.04,1.31-0.12
	c0.3-0.08,0.54-0.28,0.72-0.6c0.18-0.32,0.27-0.84,0.27-1.55c0-0.58-0.09-1-0.27-1.27c-0.18-0.27-0.4-0.43-0.66-0.49
	c-0.26-0.06-0.6-0.09-1.02-0.09H111.19z"/>
<path class="st0" d="M118.92,30.03h8.48l0.26,3.38h-0.38c-0.23-1.13-0.54-1.91-0.92-2.35c-0.38-0.44-0.89-0.65-1.51-0.65h-0.81v9.19
	h1.78v0.38h-5.32V39.6h1.78v-9.19h-0.81c-0.62,0-1.13,0.22-1.51,0.65c-0.38,0.44-0.69,1.22-0.92,2.35h-0.38L118.92,30.03z"/>
<path class="st0" d="M134.9,29.92l0.04,2.58h-0.35c-0.49-1.55-1.37-2.32-2.62-2.32c-0.69,0-1.23,0.19-1.61,0.57
	c-0.38,0.38-0.57,0.78-0.57,1.19c0,0.38,0.16,0.7,0.48,0.97c0.32,0.27,0.9,0.47,1.75,0.62c0.85,0.15,1.49,0.32,1.93,0.53
	c0.44,0.21,0.82,0.56,1.12,1.05c0.3,0.49,0.46,1.05,0.46,1.68c0,0.97-0.32,1.78-0.95,2.43c-0.64,0.65-1.42,0.97-2.36,0.97
	c-0.77,0-1.53-0.28-2.29-0.85l-0.7,0.62h-0.26V37.2h0.32c0.29,0.88,0.7,1.53,1.22,1.97c0.52,0.44,1.1,0.66,1.72,0.66
	c0.62,0,1.19-0.2,1.7-0.61c0.52-0.41,0.77-0.92,0.77-1.55c0-0.52-0.18-0.97-0.54-1.32c-0.36-0.36-0.94-0.61-1.74-0.74
	c-0.8-0.14-1.42-0.29-1.85-0.47c-0.43-0.18-0.8-0.49-1.11-0.94c-0.31-0.45-0.46-0.94-0.46-1.49c0-0.75,0.27-1.42,0.8-2.01
	c0.53-0.59,1.26-0.89,2.17-0.89c0.77,0,1.48,0.24,2.14,0.73c0.18-0.17,0.34-0.38,0.47-0.61H134.9z"/>
</svg>
