<?xml version="1.0" encoding="UTF-8"?>
<svg id="_레이어_1" data-name="레이어_1" xmlns="http://www.w3.org/2000/svg" viewBox="0 0 97.66 95.58">
  <path d="M15.31,44.64h54.53v-2.72H16.62c.76-18.25,15.75-32.8,34.21-32.8s33.45,14.66,34.21,32.8h-5.43v2.72h6.84c.76,0,1.41-.65,1.41-1.41,0-20.31-16.51-36.93-36.93-36.93S14.01,22.81,14.01,43.23c0,.76.65,1.41,1.3,1.41Z"/>
  <path d="M24.22,31.93l2.61.87c2.61-7.28,8.47-13.14,15.75-15.64l-.87-2.61c-8.15,2.93-14.66,9.45-17.49,17.38Z"/>
  <rect x="7.39" y="48.66" width="87.11" height="2.72"/>
  <rect x="46.81" width="8.25" height="2.72"/>
  <path d="M1.41,95.58h12.38c.76,0,1.41-.65,1.41-1.41v-8.69l29.22,7.49c1.41.33,2.82.54,4.24.54,3.8,0,7.6-1.19,10.64-3.37l37.04-24.98c.98-.65,1.41-1.74,1.3-2.93-.11-1.09-.87-2.06-2.06-2.5l-1.85-.76c-5.1-1.96-10.86-1.3-15.21,1.85l-12.6,7.6c-2.17-2.17-5.21-3.48-8.58-3.48h-16.08c-10.54-7.17-21.72-4.89-26.18-3.58v-3.04c0-.76-.65-1.41-1.41-1.41H1.41c-.76,0-1.41.65-1.41,1.41v35.73c.11.98.65,1.52,1.41,1.52ZM40.08,67.67c.22.11.54.22.76.22h16.51c4.56,0,8.36,3.04,9.12,7.17h-25.2v2.72h26.72c.76,0,1.41-.65,1.41-1.41,0-2.06-.65-4.02-1.63-5.65l12.38-7.49s.11,0,.11-.11c3.58-2.61,8.47-3.26,12.71-1.63l1.85.76c.22.11.33.22.33.33s0,.22-.11.33l-37.26,25.09c-3.58,2.61-8.25,3.48-12.71,2.5l-29.87-7.71v-18.36c3.26-1.09,14.66-3.91,24.87,3.26ZM2.82,59.85h9.67v33.02H2.82v-33.02Z"/>
</svg>