<?xml version="1.0" encoding="utf-8"?>
<!-- Generator: Adobe Illustrator 25.2.3, SVG Export Plug-In . SVG Version: 6.00 Build 0)  -->
<svg version="1.1" id="레이어_1" xmlns="http://www.w3.org/2000/svg" xmlns:xlink="http://www.w3.org/1999/xlink" x="0px"
	 y="0px" viewBox="0 0 30 30" style="enable-background:new 0 0 30 30;" xml:space="preserve">
<style type="text/css">
	.st0{fill:#FFFFFF;}
</style>
<path id="XMLID_34_" class="st0" d="M10.98,24.75c8.87,0,13.72-7.35,13.72-13.72c0-0.21,0-0.42-0.01-0.62
	c0.94-0.68,1.76-1.53,2.41-2.5c-0.86,0.38-1.79,0.64-2.77,0.76c1-0.6,1.76-1.54,2.12-2.67c-0.93,0.55-1.96,0.95-3.06,1.17
	c-0.88-0.94-2.13-1.52-3.52-1.52c-2.66,0-4.82,2.16-4.82,4.82c0,0.38,0.04,0.75,0.13,1.1c-4.01-0.2-7.56-2.12-9.94-5.04
	C4.81,7.24,4.57,8.07,4.57,8.95c0,1.67,0.85,3.15,2.15,4.01c-0.79-0.02-1.53-0.24-2.18-0.6c0,0.02,0,0.04,0,0.06
	c0,2.34,1.66,4.28,3.87,4.73c-0.4,0.11-0.83,0.17-1.27,0.17c-0.31,0-0.61-0.03-0.91-0.09c0.61,1.92,2.39,3.31,4.5,3.35
	C9.07,21.88,7,22.65,4.74,22.65c-0.39,0-0.77-0.02-1.15-0.07C5.72,23.95,8.25,24.75,10.98,24.75"/>
</svg>
