<?xml version="1.0" encoding="utf-8"?>
<!-- Generator: Adobe Illustrator 25.2.3, SVG Export Plug-In . SVG Version: 6.00 Build 0)  -->
<svg version="1.1" id="레이어_1" xmlns="http://www.w3.org/2000/svg" xmlns:xlink="http://www.w3.org/1999/xlink" x="0px"
	 y="0px" viewBox="0 0 30 30" style="enable-background:new 0 0 30 30;" xml:space="preserve">
<style type="text/css">
	.st0{fill:#FFFFFF;}
</style>
<path class="st0" d="M20,5H10c-2.76,0-5,2.24-5,5v10c0,2.76,2.24,5,5,5h10c2.76,0,5-2.24,5-5V10C25,7.23,22.76,5,20,5z M23.5,19.25
	c0,2.35-1.9,4.25-4.25,4.25h-8.5c-2.35,0-4.25-1.9-4.25-4.25v-8.5c0-2.35,1.9-4.25,4.25-4.25h8.5c2.35,0,4.25,1.9,4.25,4.25V19.25z
	 M15,10.41c-2.53,0-4.58,2.05-4.58,4.58s2.05,4.58,4.58,4.58s4.58-2.05,4.58-4.58C19.58,12.47,17.53,10.41,15,10.41z M15,18.2
	c-1.77,0-3.21-1.44-3.21-3.21c0-1.77,1.44-3.21,3.21-3.21s3.21,1.44,3.21,3.21C18.2,16.77,16.77,18.2,15,18.2z M22.22,9.6
	c0,0.73-0.59,1.32-1.32,1.32s-1.32-0.59-1.32-1.32c0-0.73,0.59-1.32,1.32-1.32C21.63,8.28,22.22,8.87,22.22,9.6z"/>
</svg>
